<svg width="20" height="21" viewBox="0 0 20 21" fill="none" xmlns="http://www.w3.org/2000/svg">
<path fill-rule="evenodd" clip-rule="evenodd" d="M14.2418 16.0917L9.99988 11.8497L5.75684 16.0917C5.36438 16.4699 4.74133 16.4641 4.35583 16.0787C3.97046 15.6932 3.96472 15.0702 4.3429 14.6777L8.58594 10.4348L4.3429 6.19177C3.96472 5.79932 3.97046 5.17627 4.35583 4.79083C4.74133 4.4054 5.36438 4.3996 5.75684 4.77783L9.99988 9.01978L14.2418 4.77777C14.6323 4.38721 15.2655 4.38708 15.6563 4.77747C16.0469 5.16785 16.0472 5.80103 15.6569 6.19183L11.4138 10.4357L15.6569 14.6787C16.0472 15.0695 16.0469 15.7026 15.6563 16.093C15.2655 16.4834 14.6323 16.4833 14.2418 16.0927V16.0917Z" fill="white"/>
</svg>
